<?xml version="1.0" encoding="utf-8"?>
<!-- Generator: Adobe Illustrator 25.0.1, SVG Export Plug-In . SVG Version: 6.00 Build 0)  -->
<svg version="1.1" id="Layer_1" xmlns="http://www.w3.org/2000/svg" xmlns:xlink="http://www.w3.org/1999/xlink" x="0px" y="0px"
	 viewBox="0 0 1920 1419" style="enable-background:new 0 0 1920 1419;" xml:space="preserve">
<style type="text/css">
	.st0{fill:none;stroke:#FFFFFF;stroke-width:3;stroke-miterlimit:10;}
</style>
<path class="bg_path st0" d="M1087.25-9.84c0,0-40,143,59,161c0,0,163-56,128,10c0,0-48.46,31.01,9.19,39.61c0.91,0.14,1.85,0.27,2.81,0.39
	c62,8,4,33,4,33s94,16,36,107c0,0,1,19,7,20l44,4c0,0,7-51,3-68c0,0,33-82,43-152c0,0,35-2,77,4l25-34c0,0-31-6-36-14s36,4,36,4
	l18-20l26,7l-35,64l-33-5l90,17l-12-41l-23-7l5-8l17,6l-5-28l24,4c0,0,6,25,6,28s39,12,43,7c4-1,4,8-1,8s-40-6-40-6l-1-7l5,46l-17,1
	c0,0,23,11,44,6c0,0,54,20,64,14c0,0-16,81-19,75c0,0,17,73-6,110c0,0-6,40-7,44l-288-52l314,62c0,0,0,23-10,23s-355-76-355-76
	s-2-14,1-16v17l67,15l240,53l13,141c0,0-31,12-34,6s-22-154-22-154l-155-33c0,0-72,149-85,144s-28-14-28-14l69-141c0,0-48,74-58,59
	s-16-15-22-10s-2,17,9,14s23-17,21,6s-16,52-35,45s-29-39-79-22s-2,51,12,27s35-48-25-57s-55,80-77,76c0,0-23,20-21-2
	c1-10,28,8,0,27s-138,59-372-8c0,0-220,11-268,84s19,47,46,27s20-33,14-31s-19,9,13,61c0,0,34,76-127,83s-189,151-159,204
	s93-4,84-37s-56-23-48,6s62,27,71-4s-1-130,52-123s292,30,81,111c0,0-100-15-86,16s55,10,66,39s-58,56-65,39s46-17,19,12
	c-17,3-40,10-41,1s-63,30-18,39s-24,56-97,18c-68,21-21,121,1,116c0,0,157-101,223-23s-26,130-26,130s-108-14-80,77
	c-3,30-185,14-167-100c22-32,0-51,53-77c0,0-32,70-15,78c0,0,0,94,46,80c27-21-7-41-19-40s-14,19-14,19s10-13,1-24s-19-17-10-26
	s39-14,7-38c-23-1-9,29-9,29s20-85,52-85c51-16,19,49,6,36s-20-38,20-42c0,0,29-23,46-17c0,0,7-4,33,8c0,0-15,47-41,14
	c0-27,20-21,42-17c0,0,32-1,47,6c0,0,51,16,12,38c-27-6-21-46-2-38s31,55-14,65c0,0-72-34-51,27c15,17,55,16,53-21v-5"/>
</svg>
