<?xml version="1.0" encoding="utf-8"?>
<!-- Generator: Adobe Illustrator 25.0.1, SVG Export Plug-In . SVG Version: 6.00 Build 0)  -->
<svg version="1.1" id="Layer_1" xmlns="http://www.w3.org/2000/svg" xmlns:xlink="http://www.w3.org/1999/xlink" x="0px" y="0px"
	 viewBox="0 0 1920 1478" style="enable-background:new 0 0 1920 1478;" xml:space="preserve">
<style type="text/css">
	.st0{fill:none;stroke:#FFFFFF;stroke-width:4;stroke-miterlimit:10;}
	.st1{fill:none;}
	.st2{fill:none;stroke:#FFFFFF;stroke-width:3;stroke-miterlimit:10;}
</style>
<g>
	<path class="st0" d="M1121.58,19.33c0,0-50,131,62,165c0,0,198.5-75.5,99.5,31.5c0,0,0,23,54,20c0,0-39,23,37,56c0,0,24,28-13,74
		c0,0-3.94,12.38,0.42,18.98c1.45,2.2,3.83,3.77,7.58,4.02c0,0,3.03,1.56,7.25,3.62c9.29,4.53,24.37,11.44,25.75,9.38c2-3,11-2,11-2
		s1-41,0-64c0,0,55-136,46-163c0,0,222,29,274,52c0,0-10,45-11,56c0,0-15,22,0,45c0,0,13,26-18,94c0,0-1,23-2,30l24,7
		c0,0,13,16-3,25s-3,2-3,2l-359-77"/>
	<path class="st0" d="M1532.58,182.33l46-65c0,0,19,0,21,8s0,1,0,1l-34,61l-0.93,1.63l61.93,9.37c0,0,4-3-7-14c0,0-14-37-11-62
		c0,0,20,0,22,2l10,76"/>
	<path class="st0" d="M1562.58,138.33c-1,0-39-10-43-8s1,5,1,5l36,11l1.61,0.96"/>
	<path class="st1" d="M1670.58,183.33"/>
	<polygon class="st2" points="1589.58,144.33 1607.08,146.83 1611.08,157.83 1586.08,152.83 	"/>
	<path class="st2" d="M1636.08,154.83c0,0,19,7,25,5l22,2c0,0,3,6-2,7c0,0-42-1-44-4"/>
	<path class="st2" d="M1624.71,463.2c0,0,22.37,152.63,24.37,156.63c0,0,19,13,29-3c0,0,1-70-8-98c0,0,0-43-2-47"/>
	<path class="st2" d="M1431.02,422.37l-71.93,142.46c0,0,21,24,33,16l86.28-148.67"/>
	<path class="st2" d="M1423.32,439.2c0,0-18.66,2.55-32.6,34.15c-0.45,1.01-1.12,1.9-1.98,2.58c-4.48,3.53-19.58,14.26-35.79,12.85
		c-6.37-0.55-8.51-8.87-3.17-12.39c4.56-3,11.06-3.72,19.31,4.42c0.63,0.62,1.15,1.36,1.5,2.18c4.9,11.42,41.24,101.52-63.31,32.63
		c-0.81-0.53-1.73-0.9-2.69-1.04c-9.1-1.37-56.99-6.75-61.51,31.24c-0.99,9.87,49.66,8.05,50.01-35.26c0.01-1.24-0.36-2.44-1.01-3.5
		c-5.84-9.54-37.94-51.26-109.15,40.65c-0.55,0.71-0.95,1.51-1.18,2.38c-1.47,5.55-8.07,27.31-20.29,24.65
		c-2.61-0.57-4.6-2.72-5.08-5.35c-1.15-6.19-2.63-17.16,4.85-1.36c0.62,1.31,0.81,2.79,0.52,4.21
		c-2.26,11.08-20.92,56.13-174.69,45.59c0,0-102.58-10.96-196.42-32.87c-0.39-0.09-0.79-0.15-1.19-0.16
		c-13.47-0.6-245.73-8.99-293.77,120.32c-0.47,1.26-0.53,2.63-0.21,3.94c2.13,8.79,14.56,37.27,80.93-34.24
		c2.21-2.39,2.42-6.02,0.47-8.63c-5.61-7.52-15.53-17.35-3.07,27.73c0.16,0.59,0.41,1.15,0.72,1.67
		c4.51,7.56,38.98,69.57-28.12,93.12c-0.23,0.08-0.46,0.15-0.7,0.2c-5.84,1.36-82.66,19.16-103.72,16.71
		c-7.81-0.91-15.7-0.74-23.43,0.73c-43.22,8.25-145.67,42.74-125.18,183.22c1.34,9.16,5.69,17.65,12.4,24.03
		c12.72,12.09,36.67,23.37,71.34-7.65c17.48-15.64,27.79-37.76,28.93-61.19c1.85-38,12.47-99.91,62.71-89
		c0.2,0.04,0.39,0.08,0.59,0.1c13.02,1.47,451.28,51.72-35.05,102.94c-0.15,0.02-0.3,0.01-0.45,0.03
		c-11.79,1.49-22.79,18.49,42.95,30.9c0.18,0.03,0.34,0.11,0.51,0.15c5.24,1.35,89.94,24.12,4.94,62.85
		c-0.13,0.06-0.26,0.12-0.4,0.17c-2.59,0.98-28.19,10.2-22.63-9.15c0.91-3.15,4-5.18,7.26-4.79c7.91,0.94,19.74,5.87,0.67,29.36
		c-1.3,1.6-3.28,2.5-5.34,2.47c-7.66-0.14-26.37-0.79-28.75-3.96c-2.32-3.1-0.45,2.79,0.51,5.61c0.29,0.85,0.74,1.63,1.34,2.3
		c6.02,6.74,37.92,48.45-105.29,38.35c-2.28-0.16-4.48,0.85-5.86,2.68c-10.48,13.93-51.38,74.64-7.01,121.78
		c2.34,2.49,2.47,6.32,0.29,8.94c-23.74,28.43-136.51,177.94,101.27,196.28c0.5,0.04,1.01,0.03,1.5-0.04
		c27.9-3.97,10.93-35.46,6.31-43.19c-0.75-1.25-1.09-2.7-0.93-4.15c1.04-9.57,10-44.11,84.87-47.55
		c20.4-1.7,27.07-15.68,28.62-19.84c0.3-0.8,0.75-1.53,1.31-2.17c7.14-7.98,51.26-62.29-11.91-121.05c-0.69-0.64-1.5-1.12-2.39-1.42
		c-12.49-4.25-108.38-33.7-196.78,29.86c-0.56,0.41-1.07,0.9-1.48,1.46l-3.55,4.74c-1.16,1.54-1.6,3.5-1.22,5.39l0,0
		c0.26,1.32,0.13,2.68-0.38,3.92c-4.51,10.86-26.6,65.22-21.21,75.11c5.94,10.89,28.55,26.69,26.08-15.73
		c-0.05-0.92-0.3-1.82-0.72-2.64c-1.13-2.2-3.75-6.46-7.78-8.13c-4.11-1.71-5.33-7-2.62-10.54c6.88-8.98,15.71-20.08,23.68-28.84
		c4.67-5.12,13.1-0.77,11.61,6c-2.01,9.15,0.45,17.83,18.13,16.31c2.26-0.19,4.27-1.51,5.35-3.5c6.18-11.34,24.75-49.47-13.74-34.93
		l-3,1"/>
	<path class="st2" d="M303.08,1328.83c0,0,11,98,50,80s-18-59-31-33l-4,9v1"/>
	<path class="st2" d="M381.34,1239.81c0,0,31.74-23.98,50.74-18.98c0,0,10-16,27,5s-18,30-21,28s-28-6-10-34"/>
	<path class="st2" d="M459.08,1225.83c0,0,43-3,54,5c0,0,23-5,26,24c0,0-1,34-32,12c0,0-11-28,1-35l2-4"/>
	<path class="st2" d="M538.45,1259.18c0,0,0.61,23.91-28.02,37.05c-0.44,0.2-0.89,0.4-1.35,0.6c0,0-58-36-53,26c9,12,34,14,38,12
		s29-20,17-34l-1-3"/>
	<path class="st0" d="M1362.58,406.83c0,0,9-16,10-16"/>
	<path class="st0" d="M1413.08,399.83c0,0,252.5,58,289,50"/>
</g>
</svg>
